<svg width="91" height="84" viewBox="0 0 91 84" fill="none" xmlns="http://www.w3.org/2000/svg">
<path d="M6 25.3506L32.3111 33.7701L28.1013 41.1372L22.7733 39.9863L6 25.3506Z" fill="#D2C195" stroke="#020911" stroke-width="3.74684" stroke-linejoin="round"/>
<path d="M32.7055 35.9409L52.8665 39.9863L57.9642 61.1996L45.9598 75.9997L26.7198 71.5597L20.0762 51.7276L32.7055 35.9409Z" fill="#D2C195" stroke="#020911" stroke-width="3.74684" stroke-linejoin="round"/>
<path d="M42.1777 61.1995L29.6799 65.6397L37.5733 57.7464L39.0204 44.3604L42.1777 61.1995Z" fill="#020911" stroke="#020911" stroke-width="0.936709" stroke-linejoin="round"/>
<path d="M21.7866 2L27.0488 31.4684L36.5208 36.7307L38.56 30.6133L36.5208 25.1867L21.7866 2Z" fill="#D2C195" stroke="#020911" stroke-width="3.74684" stroke-linejoin="round"/>
<path d="M49.4135 42.947L59.7734 36.5338L77.0401 63.5732L84.9335 58.7338L67.5333 31.3091L83.1791 21.0837L79.0734 16.7578L63.3217 15.2666L38.5601 34.0671L49.4135 42.947Z" fill="#D2C195" stroke="#020911" stroke-width="3.74684" stroke-linejoin="round"/>
</svg>
