<svg width="91" height="82" viewBox="0 0 91 82" fill="none" xmlns="http://www.w3.org/2000/svg">
<path d="M28.5 18.5V18.5C28.5 13.5294 32.5294 9.5 37.5 9.5H51.5C56.4706 9.5 60.5 13.5294 60.5 18.5V18.5" stroke="#020911" stroke-width="15" stroke-linejoin="round"/>
<path d="M27 19V19C27 12.9249 31.9249 8 38 8H51C57.0751 8 62 12.9249 62 19V19" stroke="#D2C195" stroke-width="4" stroke-linejoin="round"/>
<path d="M14.1296 27.5V20H75.9198V27.5L71.1667 32.5L77.3457 39L80.1975 42L84 46V65.5L81.1481 68.5H75.9198L73 69.5L69.7407 71L64.9877 74H33.6173H25.0617L21.7346 71L20.3086 68.5H14.1296H8.90123L7 65.5V60.5V50.5L8.90123 43.5L14.1296 39L16.9815 37L18.8827 32.5L14.1296 27.5Z" fill="#D2C195" stroke="#D2C195" stroke-width="4" stroke-linejoin="round"/>
<path d="M73.5 30L74.2933 31.7135C75.4176 34.1421 76 36.7862 76 39.4624V62.7289C76 65.9764 74.7127 69.0916 72.4201 71.3917C70.1177 73.7016 66.9904 75 63.7289 75H27.2711C24.0096 75 20.8823 73.7016 18.5799 71.3917C16.2873 69.0916 15 65.9764 15 62.7289V38.7059C15 36.5194 15.3888 34.3503 16.1482 32.2999L17 30M16.0667 70.2H11.2973C9.62717 70.2 8.02542 69.5365 6.84444 68.3556C5.66347 67.1746 5 65.5728 5 63.9027V49.5947C5 46.2543 6.32693 43.0508 8.68889 40.6889L9.76934 39.6084C11.4395 37.9383 13.7047 37 16.0667 37M75 70.2H79.7693C81.4395 70.2 83.0412 69.5365 84.2222 68.3556C85.4032 67.1746 86.0667 65.5728 86.0667 63.9027V49.5947C86.0667 46.2543 84.7397 43.0508 82.3778 40.6889L81.2973 39.6084C79.6272 37.9383 77.3619 37 75 37M78 21.2559V25.3274C78 26.7132 77.4248 28.0369 76.4118 28.9825L53.2408 50.611C52.3149 51.4752 51.0955 51.9559 49.829 51.9559H40.8495C39.5891 51.9559 38.3752 51.4799 37.4508 50.6232L14.1013 28.984C13.0803 28.0378 12.5 26.7088 12.5 25.3167V21.1669C12.5 19.8353 13.5795 18.7559 14.9111 18.7559H27.2711H75.5C76.8807 18.7559 78 19.8751 78 21.2559Z" stroke="#020911" stroke-width="4" stroke-linejoin="round"/>
</svg>
