<svg width="39" height="36" viewBox="0 0 39 36" fill="none" xmlns="http://www.w3.org/2000/svg">
<path d="M13.0989 16.5263L14.8028 16.5368C15.0576 17.8338 15.5619 19.0941 16.3263 20.2389L15.116 21.4257C14.6807 21.851 14.6807 22.5389 15.1054 22.9695L16.4112 24.2771C16.8412 24.7077 17.5366 24.7077 17.9718 24.2876L19.1821 23.1008C20.3287 23.8675 21.5974 24.3873 22.9085 24.6499L22.8979 26.3355C22.8926 26.9394 23.3863 27.4278 23.9967 27.433L25.8546 27.4435C26.4651 27.4488 26.9588 26.9604 26.9641 26.3565L26.9747 24.6709C28.2858 24.4188 29.5598 23.92 30.717 23.1638L31.9167 24.3611C32.3466 24.7917 33.042 24.7917 33.4773 24.3716L34.7991 23.0798C35.2343 22.6544 35.2343 21.9665 34.8097 21.5359L33.61 20.3387C34.385 19.2044 34.9105 17.9494 35.176 16.6523L36.8799 16.6628C37.4904 16.6681 37.984 16.1797 37.9893 15.5758L38 13.7379C38.0053 13.134 37.5116 12.6457 36.9011 12.6404L35.1972 12.6299C34.9424 11.3329 34.4381 10.0726 33.6737 8.92782L34.884 7.74105C35.3193 7.31571 35.3193 6.6278 34.8946 6.1972L33.5888 4.88966C33.1588 4.45906 32.4634 4.45906 32.0282 4.87915L30.8179 6.06592C29.6713 5.29925 28.4026 4.77938 27.0915 4.51682L27.1021 2.83119C27.1074 2.2273 26.6137 1.73894 26.0033 1.73369L24.1454 1.72319C23.5349 1.71794 23.0412 2.2063 23.0359 2.81018L23.02 4.49582C21.7036 4.74787 20.4296 5.24674 19.2777 6.00291L18.078 4.80564C17.648 4.37504 16.9527 4.37504 16.5174 4.79513L15.2009 6.08693C14.7657 6.51227 14.7657 7.20018 15.1903 7.63078L16.39 8.82805C15.615 9.96231 15.0895 11.2173 14.824 12.5144L13.1201 12.5039C12.5096 12.4986 12.016 12.987 12.0107 13.5909L12 15.4288C11.9947 16.0274 12.4884 16.521 13.0989 16.5263ZM21.5178 11.1018C23.4606 9.20089 26.5872 9.21664 28.5088 11.1386C30.4304 13.0605 30.4144 16.1535 28.4716 18.0544C26.5288 19.9553 23.4022 19.9396 21.4806 18.0176C19.559 16.0957 19.5749 13.0027 21.5178 11.1018Z" fill="#D2C195" stroke="#020911" stroke-width="1.64569"/>
<path d="M13.5 22.0005C18.1944 22.0005 22 18.1949 22 13.5005C22 8.80607 18.1944 5.00049 13.5 5.00049C8.80558 5.00049 5 8.80607 5 13.5005C5 18.1949 8.80558 22.0005 13.5 22.0005Z" fill="#D2C195"/>
<path d="M1.16553 34.7046C1.16553 27.8642 6.71078 22.3188 13.5512 22.3188C20.3917 22.3188 25.937 27.8641 25.937 34.7046H1.16553Z" fill="#D2C195"/>
<path d="M13.5 23.0005C18.7382 23.0005 23 18.7387 23 13.5004C23 8.26224 18.7382 4.00049 13.5 4.00049C8.26178 4.00049 4 8.26224 4 13.5004C4 18.7387 8.26165 23.0005 13.5 23.0005ZM13.5 6.57436C17.319 6.57436 20.4261 9.68141 20.4261 13.5004C20.4261 17.3197 17.319 20.4267 13.5 20.4267C9.68096 20.4267 6.57389 17.3197 6.57389 13.5004C6.57376 9.68141 9.68083 6.57436 13.5 6.57436Z" fill="#020911"/>
<path d="M1.02336 35.5851H25.7947C25.7956 35.5851 25.7963 35.5851 25.7972 35.5851C26.3623 35.5851 26.8205 35.1269 26.8205 34.5618C26.8205 34.5362 26.8196 34.511 26.8178 34.4859C26.7769 27.127 20.7776 21.1528 13.409 21.1528C6.0152 21.1528 0 27.168 0 34.5618C0.000102428 35.1269 0.458264 35.5851 1.02336 35.5851ZM13.4091 23.1993C19.3294 23.1993 24.2067 27.7509 24.7258 33.5384H2.0923C2.6113 27.7509 7.48873 23.1993 13.4091 23.1993Z" fill="#020911"/>
</svg>
