<svg width="12" height="11" viewBox="0 0 12 11" fill="none" xmlns="http://www.w3.org/2000/svg">
<g filter="url(#filter0_i_280_137)">
<path d="M2 2V6.86957H5.13043V8.95652H5.47826L8.6087 6.86957H10V2H2Z" fill="#626262"/>
</g>
<path d="M2 1H1V2V6.86957V7.86957H2H4.13043V8.95652V9.95652H5.13043H5.47826H5.78104L6.03296 9.78857L8.91147 7.86957H10H11V6.86957V2V1H10H2Z" stroke="#010A13" stroke-width="2"/>
<g filter="url(#filter1_i_280_137)">
<path d="M2 2V6.86957H5.13043V8.95652H5.47826L8.6087 6.86957H10V2H2Z" fill="#626262"/>
</g>
<path d="M2 2V6.86957H5.13043V8.95652H5.47826L8.6087 6.86957H10V2H2Z" stroke="#A3A099" stroke-width="1.3913"/>
<defs>
<filter id="filter0_i_280_137" x="-1.3913" y="0" width="13.3913" height="11.6522" filterUnits="userSpaceOnUse" color-interpolation-filters="sRGB">
<feFlood flood-opacity="0" result="BackgroundImageFix"/>
<feBlend mode="normal" in="SourceGraphic" in2="BackgroundImageFix" result="shape"/>
<feColorMatrix in="SourceAlpha" type="matrix" values="0 0 0 0 0 0 0 0 0 0 0 0 0 0 0 0 0 0 127 0" result="hardAlpha"/>
<feOffset dx="-1.3913" dy="0.695652"/>
<feGaussianBlur stdDeviation="1.04348"/>
<feComposite in2="hardAlpha" operator="arithmetic" k2="-1" k3="1"/>
<feColorMatrix type="matrix" values="0 0 0 0 0 0 0 0 0 0 0 0 0 0 0 0 0 0 0.25 0"/>
<feBlend mode="normal" in2="shape" result="effect1_innerShadow_280_137"/>
</filter>
<filter id="filter1_i_280_137" x="-0.086861" y="1.3042" width="10.7824" height="9.0438" filterUnits="userSpaceOnUse" color-interpolation-filters="sRGB">
<feFlood flood-opacity="0" result="BackgroundImageFix"/>
<feBlend mode="normal" in="SourceGraphic" in2="BackgroundImageFix" result="shape"/>
<feColorMatrix in="SourceAlpha" type="matrix" values="0 0 0 0 0 0 0 0 0 0 0 0 0 0 0 0 0 0 127 0" result="hardAlpha"/>
<feOffset dx="-1.3913" dy="0.695652"/>
<feGaussianBlur stdDeviation="1.04348"/>
<feComposite in2="hardAlpha" operator="arithmetic" k2="-1" k3="1"/>
<feColorMatrix type="matrix" values="0 0 0 0 0 0 0 0 0 0 0 0 0 0 0 0 0 0 0.25 0"/>
<feBlend mode="normal" in2="shape" result="effect1_innerShadow_280_137"/>
</filter>
</defs>
</svg>
