<svg width="91" height="82" viewBox="0 0 91 82" fill="none" xmlns="http://www.w3.org/2000/svg">
<mask id="path-1-outside-1_271_83" maskUnits="userSpaceOnUse" x="6" y="1" width="79" height="79" fill="black">
<rect fill="white" x="6" y="1" width="79" height="79"/>
<path d="M80 40.5C80 59.5538 64.5538 75 45.5 75C26.4462 75 11 59.5538 11 40.5C11 21.4462 26.4462 6 45.5 6C64.5538 6 80 21.4462 80 40.5Z"/>
<path d="M80 40.2813C80 51.3625 74.8147 61.4274 66.6059 67.6941C66.6059 68.9118 62 47.7337 45.5 47.7337C29 47.7337 23.9882 68.9118 23.9882 67.6941C15.7794 61.4274 11 51.3625 11 40.2813C11 21.3483 26.4462 6 45.5 6C64.5538 6 80 21.3483 80 40.2813Z"/>
<path d="M56 31.3383C56 37.1006 51.299 41.7718 45.5 41.7718C39.701 41.7718 35 37.1006 35 31.3383C35 25.5761 39.701 20.9049 45.5 20.9049C51.299 20.9049 56 25.5761 56 31.3383Z"/>
</mask>
<path d="M80 40.5C80 59.5538 64.5538 75 45.5 75C26.4462 75 11 59.5538 11 40.5C11 21.4462 26.4462 6 45.5 6C64.5538 6 80 21.4462 80 40.5Z" fill="#020911"/>
<path d="M80 40.2813C80 51.3625 74.8147 61.4274 66.6059 67.6941C66.6059 68.9118 62 47.7337 45.5 47.7337C29 47.7337 23.9882 68.9118 23.9882 67.6941C15.7794 61.4274 11 51.3625 11 40.2813C11 21.3483 26.4462 6 45.5 6C64.5538 6 80 21.3483 80 40.2813Z" fill="#D2C195"/>
<path d="M56 31.3383C56 37.1006 51.299 41.7718 45.5 41.7718C39.701 41.7718 35 37.1006 35 31.3383C35 25.5761 39.701 20.9049 45.5 20.9049C51.299 20.9049 56 25.5761 56 31.3383Z" fill="#020911"/>
<path d="M23.9882 67.6941H28.0471V65.6863L26.4511 64.4679L23.9882 67.6941ZM66.6059 67.6941L64.143 64.4679L62.5471 65.6863V67.6941H66.6059ZM75.9412 40.5C75.9412 57.3122 62.3122 70.9412 45.5 70.9412V79.0588C66.7955 79.0588 84.0588 61.7955 84.0588 40.5H75.9412ZM45.5 70.9412C28.6878 70.9412 15.0588 57.3122 15.0588 40.5H6.94118C6.94118 61.7955 24.2046 79.0588 45.5 79.0588V70.9412ZM15.0588 40.5C15.0588 23.6878 28.6878 10.0588 45.5 10.0588V1.94118C24.2046 1.94118 6.94118 19.2046 6.94118 40.5H15.0588ZM45.5 10.0588C62.3122 10.0588 75.9412 23.6878 75.9412 40.5H84.0588C84.0588 19.2046 66.7955 1.94118 45.5 1.94118V10.0588ZM15.0588 40.2813C15.0588 23.6142 28.6634 10.0588 45.5 10.0588V1.94118C24.2289 1.94118 6.94118 19.0823 6.94118 40.2813H15.0588ZM45.5 10.0588C62.3366 10.0588 75.9412 23.6142 75.9412 40.2813H84.0588C84.0588 19.0823 66.7711 1.94118 45.5 1.94118V10.0588ZM45.5 43.6749C35.239 43.6749 28.785 50.326 25.1453 55.9712C23.2989 58.8351 22.0458 61.624 21.262 63.578C20.8699 64.5558 20.5858 65.3497 20.4242 65.7912C20.3155 66.0883 20.3181 66.0676 20.3636 65.9692C20.3784 65.937 20.4482 65.785 20.5657 65.5941C20.6229 65.5012 20.7468 65.3077 20.9377 65.0863C21.0674 64.936 21.5448 64.3885 22.379 64.0243C22.85 63.8186 23.5387 63.6269 24.3686 63.7026C25.2339 63.7816 25.9764 64.127 26.5402 64.5804C27.5122 65.3621 27.8093 66.3339 27.8802 66.5709C28.0611 67.1751 28.0471 67.678 28.0471 67.6941H19.9294C19.9294 67.7483 19.9178 68.2783 20.1036 68.899C20.177 69.1442 20.4772 70.1216 21.453 70.9063C22.0187 71.3612 22.7631 71.7075 23.6306 71.7867C24.4627 71.8626 25.1538 71.6704 25.6273 71.4637C26.4664 71.0973 26.9495 70.5451 27.0854 70.3875C27.2826 70.1588 27.4134 69.9555 27.4781 69.8503C27.6108 69.6348 27.6983 69.4484 27.7335 69.3721C27.8605 69.0972 27.9869 68.7463 28.0474 68.5809C28.2244 68.0973 28.4607 67.4365 28.7962 66.6C29.4678 64.9256 30.4989 62.6483 31.9679 60.3699C34.9591 55.7305 39.261 51.7926 45.5 51.7926V43.6749ZM26.4511 64.4679C19.3268 59.0291 15.0588 50.1995 15.0588 40.2813H6.94118C6.94118 52.5254 12.232 63.8257 21.5253 70.9203L26.4511 64.4679ZM75.9412 40.2813C75.9412 50.0919 71.3501 58.9659 64.143 64.4679L69.0688 70.9203C78.2793 63.8889 84.0588 52.633 84.0588 40.2813H75.9412ZM62.5471 67.6941C62.5471 67.6834 62.5345 67.2187 62.6897 66.656C62.743 66.4628 63.0032 65.4932 63.9304 64.6845C64.4828 64.2027 65.2544 63.7987 66.1957 63.7056C67.0986 63.6162 67.8393 63.8439 68.3277 64.0749C69.1801 64.4781 69.649 65.0698 69.7586 65.2075C69.9368 65.431 70.0507 65.624 70.1016 65.7134C70.2072 65.8988 70.2693 66.0451 70.2815 66.0735C70.3185 66.1599 70.3182 66.171 70.2162 65.8728C70.0624 65.423 69.7958 64.6293 69.4224 63.6468C68.6776 61.6874 67.4774 58.8915 65.6823 56.0194C62.1393 50.3505 55.7823 43.6749 45.5 43.6749V51.7926C51.7177 51.7926 55.9137 55.706 58.7986 60.3217C60.2174 62.5919 61.2 64.8622 61.8344 66.5312C62.1506 67.3629 62.3727 68.024 62.5352 68.4993C62.5914 68.6636 62.7063 69.0049 62.8187 69.2677C62.8498 69.3403 62.9283 69.521 63.0479 69.7311C63.1058 69.8327 63.2261 70.0355 63.4101 70.2663C63.5256 70.4112 63.9997 71.0077 64.8567 71.4131C65.3473 71.6451 66.0902 71.8733 66.9951 71.7838C67.9384 71.6904 68.7119 71.2855 69.266 70.8023C70.1967 69.9906 70.4597 69.0154 70.5153 68.8139C70.675 68.2347 70.6647 67.7429 70.6647 67.6941H62.5471ZM51.9412 31.3383C51.9412 34.8346 49.0817 37.713 45.5 37.713V45.8306C53.5162 45.8306 60.0588 39.3665 60.0588 31.3383H51.9412ZM45.5 37.713C41.9183 37.713 39.0588 34.8346 39.0588 31.3383H30.9412C30.9412 39.3665 37.4838 45.8306 45.5 45.8306V37.713ZM39.0588 31.3383C39.0588 27.842 41.9183 24.9637 45.5 24.9637V16.8461C37.4838 16.8461 30.9412 23.3102 30.9412 31.3383H39.0588ZM45.5 24.9637C49.0817 24.9637 51.9412 27.842 51.9412 31.3383H60.0588C60.0588 23.3102 53.5162 16.8461 45.5 16.8461V24.9637Z" fill="#020911" mask="url(#path-1-outside-1_271_83)"/>
</svg>
