<svg width="37" height="38" viewBox="0 0 37 38" fill="none" xmlns="http://www.w3.org/2000/svg">
<path d="M30.6945 21.6626C30.5132 21.5012 30.2961 21.4229 30.0397 21.4229H19.7424V35.1935H29.071C30.1379 35.1935 30.9489 34.3778 30.9489 33.4272V22.2588C30.9489 22.0306 30.8757 21.824 30.6945 21.6626Z" fill="#D2C195"/>
<path d="M18.258 21.48H8.04644C7.51278 21.48 7.05151 21.8408 7.05151 22.3161V33.4843C7.05151 34.4348 7.94829 35.2506 9.01522 35.2506H18.258V21.48Z" fill="#D2C195"/>
<path d="M18.1471 11.2598H8.01238C6.83867 11.2598 5.84009 12.1261 5.84009 13.1946V17.6974C5.84009 18.766 6.83881 19.6324 8.01238 19.6324H18.1473V11.2598H18.1471Z" fill="#D2C195"/>
<path d="M29.922 11.1514H19.6929V19.524H29.922C31.0957 19.524 32.0001 18.6576 32.0001 17.589V13.0862C32.0001 12.0176 31.0957 11.1514 29.922 11.1514Z" fill="#D2C195"/>
<path d="M18.7925 6.71217L24.614 3.25098L23.9843 6.71217L18.7925 10.1734L13.6007 6.71217L13.2078 3.25098L18.7925 6.71217Z" fill="#D2C195" stroke="#D2C195" stroke-width="1.23614" stroke-linejoin="round"/>
</svg>
