<svg width="18" height="17" viewBox="0 0 18 17" fill="none" xmlns="http://www.w3.org/2000/svg">
<path d="M0.719971 14.189C0.719971 12.002 2.81527 10.229 5.39997 10.229C7.98467 10.229 10.08 12.002 10.08 14.189H0.719971Z" fill="#D2C195"/>
<path d="M0.195085 14.1887H10.0211H10.295C10.5146 14.1887 10.4195 14.0401 10.4195 13.8568C10.4195 13.8485 10.4192 13.8404 10.4185 13.8322C10.0211 11.8487 7.75029 10.0487 5.04 9.86865C1.99029 10.2287 0.813647 11.4887 0.000873551 13.8568C0.00091334 14.0401 -0.024432 14.1887 0.195085 14.1887ZM5.20971 10.2287C7.38 10.5887 9 11.6687 9.60586 13.525H0.813647C1.26 11.8487 2.88 10.4087 5.20971 10.2287Z" fill="#D2C195"/>
<circle cx="5.22016" cy="5.72846" r="3.06" fill="#D2C195"/>
<rect x="12.5999" y="5.90869" width="2.52" height="7.92" fill="#D2C195"/>
<rect x="18" y="8.78857" width="2.16" height="7.92" transform="rotate(90 18 8.78857)" fill="#D2C195"/>
</svg>
