<svg width="19" height="17" viewBox="0 0 19 17" fill="none" xmlns="http://www.w3.org/2000/svg">
<path d="M4.94333 1.14844C5.96436 2.78213 7.59805 3.39476 9.43595 3.59898C11.0696 3.39476 12.9076 2.98634 13.9286 1.14844V4.82425L15.5623 4.21161C15.9707 4.21161 16.5834 4.82425 15.9707 5.64109L14.337 7.07057L13.9286 7.479V8.70427H16.3791C16.5834 8.70427 16.9918 9.52111 16.9918 9.52111L14.5412 11.1548V11.7674L15.9707 13.6053L15.3581 14.4222H14.7455L13.7244 13.4011C12.9076 14.6264 11.2739 15.239 9.64017 15.8517C6.7812 14.8306 6.16857 14.4222 5.14751 13.4011L4.12645 14.4222H3.51382L2.90121 13.6053L4.33067 11.7674V11.1548L1.88013 9.52111C1.88013 9.52111 2.28855 8.70427 2.49276 8.70427H4.94333V7.479L4.53488 7.07057L2.90121 5.64109C2.28855 4.82425 2.90121 4.21161 3.30961 4.21161L4.94333 4.82425V1.14844Z" fill="#D2C195"/>
<path d="M7.39384 6.25373H11.4781L12.0907 6.86636V12.7885C11.8184 13.1969 10.6612 14.0138 9.43595 14.0138C8.00647 14.0138 7.05349 13.1969 6.7812 12.7885V6.86636L7.39384 6.25373Z" fill="#1A1B20"/>
<path d="M9.43595 3.59898L9.39085 4.0049C9.42269 4.00844 9.45483 4.00822 9.48661 4.00425L9.43595 3.59898ZM4.94333 1.14844L5.28967 0.931978C5.19311 0.777469 5.00588 0.705612 4.83073 0.755841C4.65559 0.80607 4.5349 0.966235 4.5349 1.14844H4.94333ZM4.94333 4.82425L4.79992 5.20666C4.92535 5.2537 5.06586 5.23624 5.17596 5.15994C5.28606 5.08364 5.35175 4.9582 5.35175 4.82425H4.94333ZM3.30961 4.21161L3.45301 3.82919C3.40716 3.812 3.35858 3.80319 3.30961 3.80319V4.21161ZM2.90121 5.64109L2.57448 5.88615C2.59152 5.90887 2.61089 5.92976 2.63226 5.94846L2.90121 5.64109ZM4.53488 7.07057L4.82367 6.78176C4.81726 6.77536 4.81065 6.76917 4.80383 6.76321L4.53488 7.07057ZM4.94333 7.479H5.35175C5.35175 7.37067 5.30872 7.26678 5.23212 7.19019L4.94333 7.479ZM4.94333 8.70427V9.11269C5.16889 9.11269 5.35175 8.92983 5.35175 8.70427H4.94333ZM1.88013 9.52111L1.51482 9.33846C1.42271 9.52269 1.48219 9.74668 1.65357 9.86094L1.88013 9.52111ZM4.33067 11.1548H4.73909C4.73909 11.0182 4.67084 10.8907 4.55722 10.815L4.33067 11.1548ZM4.33067 11.7674L4.65306 12.0182C4.70882 11.9465 4.73909 11.8583 4.73909 11.7674H4.33067ZM2.90121 13.6053L2.57882 13.3546C2.46575 13.5 2.46397 13.703 2.57447 13.8504L2.90121 13.6053ZM4.12645 14.4222V14.8306C4.23477 14.8306 4.33866 14.7876 4.41525 14.711L4.12645 14.4222ZM5.14751 13.4011L5.43631 13.1123C5.27681 12.9528 5.01821 12.9528 4.85871 13.1123L5.14751 13.4011ZM9.64017 15.8517L9.5028 16.2363C9.59371 16.2688 9.69318 16.268 9.78357 16.2341L9.64017 15.8517ZM3.51382 14.4222L3.18708 14.6672C3.26421 14.7701 3.38526 14.8306 3.51382 14.8306V14.4222ZM13.9286 1.14844H14.337C14.337 0.962329 14.2112 0.799755 14.031 0.753072C13.8509 0.706389 13.6619 0.787404 13.5716 0.950094L13.9286 1.14844ZM13.9286 4.82425H13.5202C13.5202 4.9582 13.5858 5.08364 13.6959 5.15994C13.806 5.23624 13.9466 5.2537 14.072 5.20666L13.9286 4.82425ZM15.5623 4.21161V3.80319C15.5133 3.80319 15.4648 3.812 15.4189 3.82919L15.5623 4.21161ZM15.9707 5.64109L16.2396 5.94846C16.261 5.92976 16.2804 5.90887 16.2974 5.88615L15.9707 5.64109ZM14.337 7.07057L14.0681 6.76321C14.0613 6.76917 14.0546 6.77536 14.0482 6.78176L14.337 7.07057ZM13.9286 7.479L13.6398 7.19019C13.5632 7.26678 13.5202 7.37067 13.5202 7.479H13.9286ZM13.9286 8.70427H13.5202C13.5202 8.92983 13.703 9.11269 13.9286 9.11269V8.70427ZM16.9918 9.52111L17.2183 9.86094C17.3897 9.74668 17.4492 9.52269 17.3571 9.33846L16.9918 9.52111ZM14.5412 11.1548L14.3147 10.815C14.2011 10.8907 14.1328 11.0182 14.1328 11.1548H14.5412ZM14.5412 11.7674H14.1328C14.1328 11.8583 14.1631 11.9465 14.2189 12.0182L14.5412 11.7674ZM15.9707 13.6053L16.2974 13.8504C16.4079 13.703 16.4062 13.5 16.2931 13.3546L15.9707 13.6053ZM14.7455 14.4222L14.4567 14.711C14.5333 14.7876 14.6371 14.8306 14.7455 14.8306V14.4222ZM13.7244 13.4011L14.0132 13.1123C13.9267 13.0258 13.8059 12.9826 13.6842 12.9947C13.5624 13.0068 13.4524 13.0728 13.3846 13.1746L13.7244 13.4011ZM15.3581 14.4222V14.8306C15.4866 14.8306 15.6077 14.7701 15.6848 14.6672L15.3581 14.4222ZM7.39384 6.25373V5.8453C7.28552 5.8453 7.18163 5.88833 7.10504 5.96493L7.39384 6.25373ZM6.7812 6.86636L6.49241 6.57756C6.41581 6.65416 6.37278 6.75804 6.37278 6.86636H6.7812ZM6.7812 12.7885H6.37278C6.37278 12.8691 6.39665 12.948 6.44138 13.015L6.7812 12.7885ZM11.4781 6.25373L11.7669 5.96493C11.6903 5.88833 11.5864 5.8453 11.4781 5.8453V6.25373ZM12.0907 6.86636H12.4991C12.4991 6.75804 12.4561 6.65416 12.3795 6.57756L12.0907 6.86636ZM12.0907 12.7885L12.4305 13.015C12.4753 12.948 12.4991 12.8691 12.4991 12.7885H12.0907ZM9.48106 3.19305C7.70261 2.99545 6.21639 2.41477 5.28967 0.931978L4.59698 1.3649C5.71233 3.14949 7.49349 3.79408 9.39085 4.0049L9.48106 3.19305ZM4.5349 1.14844V4.82425H5.35175V1.14844H4.5349ZM5.08673 4.44183L3.45301 3.82919L3.1662 4.59403L4.79992 5.20666L5.08673 4.44183ZM3.30961 3.80319C2.92928 3.80319 2.54389 4.06401 2.35721 4.43738C2.14959 4.85263 2.19077 5.37456 2.57448 5.88615L3.22794 5.39603C2.999 5.09078 3.04018 4.89797 3.08782 4.80269C3.1179 4.74252 3.16402 4.69318 3.2139 4.65993C3.23845 4.64356 3.26122 4.63291 3.27968 4.62671C3.28876 4.62366 3.29607 4.62193 3.30141 4.621C3.30405 4.62053 3.30608 4.62029 3.30748 4.62016C3.30818 4.6201 3.30871 4.62007 3.30907 4.62005C3.30925 4.62004 3.30938 4.62004 3.30947 4.62004C3.30956 4.62003 3.30961 4.62003 3.30961 4.62003V3.80319ZM2.63226 5.94846L4.26593 7.37794L4.80383 6.76321L3.17016 5.33372L2.63226 5.94846ZM4.24609 7.35938L4.65454 7.7678L5.23212 7.19019L4.82367 6.78176L4.24609 7.35938ZM4.5349 7.479V8.70427H5.35175V7.479H4.5349ZM4.94333 8.29584H2.49276V9.11269H4.94333V8.29584ZM2.49276 8.29584C2.33903 8.29584 2.22415 8.36792 2.16758 8.40906C2.10257 8.45634 2.04719 8.51303 2.00352 8.56295C1.9152 8.66388 1.83151 8.78745 1.76352 8.89622C1.69373 9.00789 1.63192 9.1179 1.58801 9.19895C1.5659 9.23978 1.54795 9.27395 1.5354 9.2982C1.52911 9.31034 1.52416 9.32003 1.52068 9.32686C1.51894 9.33028 1.51757 9.33299 1.51659 9.33494C1.5161 9.33591 1.5157 9.3367 1.51541 9.33729C1.51526 9.33758 1.51514 9.33783 1.51504 9.33802C1.51499 9.33812 1.51495 9.33821 1.51491 9.33828C1.51489 9.33832 1.51487 9.33836 1.51486 9.33838C1.51484 9.33842 1.51482 9.33846 1.88013 9.52111C2.24543 9.70376 2.24542 9.7038 2.2454 9.70383C2.2454 9.70383 2.24538 9.70386 2.24538 9.70387C2.24537 9.70389 2.24536 9.7039 2.24536 9.7039C2.24536 9.7039 2.24539 9.70385 2.24544 9.70375C2.24554 9.70355 2.24573 9.70317 2.24602 9.7026C2.2466 9.70145 2.24754 9.69958 2.24885 9.69701C2.25145 9.69189 2.25547 9.68403 2.26075 9.67383C2.27133 9.6534 2.28689 9.62376 2.30626 9.588C2.34531 9.5159 2.39837 9.4217 2.45621 9.32915C2.51585 9.23372 2.57256 9.15307 2.61826 9.10085C2.64159 9.07418 2.65162 9.06706 2.64803 9.06967C2.64555 9.07147 2.63293 9.0805 2.61072 9.08986C2.58861 9.09917 2.54768 9.11269 2.49276 9.11269V8.29584ZM1.65357 9.86094L4.10411 11.4946L4.55722 10.815L2.10668 9.18128L1.65357 9.86094ZM3.92224 11.1548V11.7674H4.73909V11.1548H3.92224ZM4.00827 11.5167L2.57882 13.3546L3.2236 13.8561L4.65306 12.0182L4.00827 11.5167ZM4.41525 14.711L5.43631 13.6899L4.85871 13.1123L3.83766 14.1334L4.41525 14.711ZM4.85871 13.6899C5.38284 14.2141 5.82139 14.5999 6.50507 14.9828C7.17561 15.3583 8.07175 15.7252 9.5028 16.2363L9.77753 15.467C8.34962 14.9571 7.50996 14.6093 6.90418 14.27C6.31154 13.9382 5.93324 13.6093 5.43631 13.1123L4.85871 13.6899ZM2.57447 13.8504L3.18708 14.6672L3.84056 14.1771L3.22796 13.3603L2.57447 13.8504ZM3.51382 14.8306H4.12645V14.0138H3.51382V14.8306ZM9.48661 4.00425C11.13 3.79882 13.1596 3.37368 14.2856 1.34678L13.5716 0.950094C12.6555 2.59901 11.0093 2.99071 9.3853 3.19371L9.48661 4.00425ZM13.5202 1.14844V4.82425H14.337V1.14844H13.5202ZM14.072 5.20666L15.7057 4.59403L15.4189 3.82919L13.7852 4.44183L14.072 5.20666ZM15.5623 4.62003C15.5623 4.62003 15.5623 4.62003 15.5624 4.62004C15.5625 4.62004 15.5627 4.62004 15.5628 4.62005C15.5632 4.62007 15.5637 4.6201 15.5644 4.62016C15.5658 4.62029 15.5679 4.62053 15.5705 4.621C15.5758 4.62193 15.5831 4.62366 15.5922 4.62671C15.6107 4.63291 15.6335 4.64356 15.658 4.65993C15.7079 4.69318 15.754 4.74252 15.7841 4.80269C15.8317 4.89797 15.8729 5.09078 15.644 5.39603L16.2974 5.88615C16.6811 5.37456 16.7223 4.85263 16.5147 4.43738C16.328 4.06401 15.9426 3.80319 15.5623 3.80319V4.62003ZM15.7017 5.33372L14.0681 6.76321L14.606 7.37794L16.2396 5.94846L15.7017 5.33372ZM14.0482 6.78176L13.6398 7.19019L14.2174 7.7678L14.6258 7.35938L14.0482 6.78176ZM13.5202 7.479V8.70427H14.337V7.479H13.5202ZM13.9286 9.11269H16.3791V8.29584H13.9286V9.11269ZM16.3791 9.11269C16.3242 9.11269 16.2833 9.09917 16.2612 9.08986C16.239 9.0805 16.2264 9.07147 16.2239 9.06967C16.2203 9.06706 16.2303 9.07418 16.2537 9.10085C16.2994 9.15307 16.3561 9.23372 16.4157 9.32915C16.4735 9.4217 16.5266 9.5159 16.5657 9.588C16.585 9.62376 16.6006 9.6534 16.6112 9.67383C16.6164 9.68403 16.6205 9.69189 16.6231 9.69701C16.6244 9.69958 16.6253 9.70145 16.6259 9.7026C16.6262 9.70317 16.6264 9.70355 16.6265 9.70375C16.6265 9.70385 16.6265 9.7039 16.6265 9.7039C16.6265 9.7039 16.6265 9.70389 16.6265 9.70387C16.6265 9.70386 16.6265 9.70383 16.6265 9.70383C16.6265 9.7038 16.6265 9.70376 16.9918 9.52111C17.3571 9.33846 17.3571 9.33842 17.357 9.33838C17.357 9.33836 17.357 9.33832 17.357 9.33828C17.357 9.33821 17.3569 9.33812 17.3569 9.33802C17.3568 9.33783 17.3566 9.33758 17.3565 9.33729C17.3562 9.3367 17.3558 9.33591 17.3553 9.33494C17.3543 9.33299 17.353 9.33028 17.3512 9.32686C17.3478 9.32003 17.3428 9.31034 17.3365 9.2982C17.324 9.27395 17.306 9.23978 17.2839 9.19895C17.24 9.1179 17.1782 9.00789 17.1084 8.89622C17.0404 8.78745 16.9567 8.66388 16.8684 8.56295C16.8247 8.51303 16.7693 8.45634 16.7043 8.40906C16.6478 8.36792 16.5329 8.29584 16.3791 8.29584V9.11269ZM16.7652 9.18128L14.3147 10.815L14.7678 11.4946L17.2183 9.86094L16.7652 9.18128ZM14.1328 11.1548V11.7674H14.9497V11.1548H14.1328ZM14.2189 12.0182L15.6483 13.8561L16.2931 13.3546L14.8636 11.5167L14.2189 12.0182ZM15.0343 14.1334L14.0132 13.1123L13.4356 13.6899L14.4567 14.711L15.0343 14.1334ZM13.3846 13.1746C13.0282 13.7091 12.4805 14.1293 11.7957 14.4961C11.1094 14.8638 10.3193 15.1608 9.49676 15.4693L9.78357 16.2341C10.5947 15.9299 11.4383 15.6143 12.1815 15.2162C12.9262 14.8172 13.6037 14.3185 14.0642 13.6277L13.3846 13.1746ZM15.644 13.3603L15.0313 14.1771L15.6848 14.6672L16.2974 13.8504L15.644 13.3603ZM15.3581 14.0138H14.7455V14.8306H15.3581V14.0138ZM7.10504 5.96493L6.49241 6.57756L7.07 7.15516L7.68264 6.54253L7.10504 5.96493ZM6.37278 6.86636V12.7885H7.18963V6.86636H6.37278ZM6.44138 13.015C6.78112 13.5247 7.85562 14.4222 9.43595 14.4222V13.6053C8.15733 13.6053 7.32586 12.8692 7.12103 12.5619L6.44138 13.015ZM11.1893 6.54253L11.8019 7.15516L12.3795 6.57756L11.7669 5.96493L11.1893 6.54253ZM11.6823 6.86636V12.7885H12.4991V6.86636H11.6823ZM11.7509 12.5619C11.6679 12.6864 11.377 12.9536 10.9278 13.1943C10.4908 13.4284 9.96191 13.6053 9.43595 13.6053V14.4222C10.1353 14.4222 10.7976 14.1907 11.3136 13.9143C11.8173 13.6444 12.2412 13.2991 12.4305 13.015L11.7509 12.5619ZM11.4781 5.8453H7.39384V6.66215H11.4781V5.8453Z" fill="#CFB582"/>
</svg>
