<svg width="18" height="16" viewBox="0 0 18 16" fill="none" xmlns="http://www.w3.org/2000/svg">
<path d="M9.91632 2.28204L9.6279 1.98892C9.34318 1.69957 8.95423 1.53662 8.54829 1.53662C8.14235 1.53662 7.7534 1.69957 7.46869 1.98892L7.18027 2.28204C6.72084 2.74895 6.46335 3.37774 6.46335 4.03279V6.96324C6.46335 7.61828 6.72084 8.24707 7.18027 8.71398L7.46869 9.0071C7.7534 9.29645 8.14235 9.4594 8.54829 9.4594C8.95423 9.4594 9.34318 9.29645 9.6279 9.0071L9.91632 8.71398C10.3757 8.24707 10.6332 7.61828 10.6332 6.96324V4.03279C10.6332 3.37774 10.3757 2.74895 9.91632 2.28204Z" fill="#5A5B5A"/>
<path d="M3.33594 7.16588V8.42298C3.33594 9.08653 3.59953 9.72291 4.06874 10.1921L4.89657 11.0199C5.36578 11.4892 6.00829 11.7527 6.67184 11.7527H8.54829M13.7606 7.16588V8.42298C13.7606 9.08653 13.4971 9.72291 13.0278 10.1921L12.2 11.02C11.7308 11.4892 11.0944 11.7527 10.4309 11.7527H8.54829M8.54829 11.7527V13.108V14.4632M8.54829 14.4632H5.21239M8.54829 14.4632H12.2M9.6279 1.98892L9.91632 2.28204C10.3757 2.74895 10.6332 3.37774 10.6332 4.03279V6.96324C10.6332 7.61828 10.3757 8.24707 9.91632 8.71398L9.6279 9.0071C9.34318 9.29645 8.95423 9.4594 8.54829 9.4594C8.14235 9.4594 7.7534 9.29645 7.46869 9.0071L7.18027 8.71398C6.72084 8.24707 6.46335 7.61828 6.46335 6.96324V4.03279C6.46335 3.37774 6.72084 2.74895 7.18027 2.28204L7.46869 1.98892C7.7534 1.69957 8.14235 1.53662 8.54829 1.53662C8.95423 1.53662 9.34318 1.69957 9.6279 1.98892Z" stroke="#5A5B5A" stroke-width="1.5" stroke-linejoin="round"/>
</svg>
