<svg width="18" height="16" viewBox="0 0 18 16" fill="none" xmlns="http://www.w3.org/2000/svg">
<path d="M3.4511 2.23355V9.5H14.2105C13.6518 9.96151 13.1764 10.4769 12.8264 11C12.4181 11.6104 12.1804 12.2314 12.1804 12.7899C12.1804 13.602 12.5865 14.414 14.2105 14.414L15.8346 13.196V1.82754C15.8346 1.50273 16.5112 1.01551 16.8496 0.8125H4.87215C3.89772 0.8125 3.51877 1.75987 3.4511 2.23355Z" fill="#D2C195"/>
<path d="M2.03009 11.3689H6.69925H11C9.78193 12.993 10.594 14.211 11 14.617H2.03007C0.202978 14.008 1.0151 11.3689 2.03009 11.3689Z" fill="#D2C195"/>
<path d="M3.4511 2.23355V9.5H14.2105C13.6518 9.96151 13.1764 10.4769 12.8264 11C12.4181 11.6104 12.1804 12.2314 12.1804 12.7899C12.1804 13.602 12.5865 14.414 14.2105 14.414L15.8346 13.196V1.82754C15.8346 1.50273 16.5112 1.01551 16.8496 0.8125H4.87215C3.89772 0.8125 3.51877 1.75987 3.4511 2.23355Z" stroke="#CFB582" stroke-width="0.857143" stroke-linejoin="round"/>
<path d="M2.03009 11.3689H6.69925H11C9.78193 12.993 10.594 14.211 11 14.617H2.03007C0.202978 14.008 1.0151 11.3689 2.03009 11.3689Z" stroke="#CFB582" stroke-width="0.857143" stroke-linejoin="round"/>
</svg>
