<svg width="18" height="16" viewBox="0 0 18 16" fill="none" xmlns="http://www.w3.org/2000/svg">
<path d="M3.87309 2L2.79372 3.76471H1.71436V14H9.00007H16.2858V3.76471H10.1694L9.09002 2H3.87309Z" fill="#D2C195"/>
<path d="M9.09002 2H3.87309L2.79372 3.76471H1.71436V14H9.00007H16.2858V3.76471M9.09002 2C9.51154 2.68916 9.74786 3.07555 10.1694 3.76471M9.09002 2L10.1694 3.76471M10.1694 3.76471C12.558 3.76471 13.8972 3.76471 16.2858 3.76471M10.1694 3.76471H16.2858" stroke="#CFB582" stroke-width="0.857143"/>
<path d="M7.94118 5.42836H7.51261V5.85693V7.04587H6H5.57143V7.47445V9.4514V9.87998H6H7.51261V11.4284V11.8569H7.94118H9.70588H10.1345V11.4284V9.87998H12H12.4286V9.4514V7.47445V7.04587H12H10.1345V5.85693V5.42836H9.70588H7.94118Z" fill="#010A13" stroke="#BAA06D" stroke-width="0.857143"/>
</svg>
